<svg width="418" height="450" viewBox="0 0 418 450" fill="none" xmlns="http://www.w3.org/2000/svg">
<path d="M295.11 302.452L352.446 267.655V34.7568L294.061 68.5022L295.11 302.452Z" fill="#4F62F6"/>
<path d="M295.039 302.332L236.654 268.587V34.6294L295.039 68.3748V302.332Z" fill="#342CA3"/>
<path d="M237.838 34.6289L295.296 68.4435L352.756 34.6289L295.296 0.814453L237.838 34.6289Z" fill="#598FF8"/>
<path d="M215.287 347.053L273.674 313.308V33.7451L215.287 67.4905V347.053Z" fill="#D6D2CD"/>
<path d="M215.461 347.453L157.075 313.709V33.8018L215.461 67.5472V347.453Z" fill="#C1BDB9"/>
<path d="M156.958 33.7454L215.284 67.4907L273.669 33.7454L215.284 0L156.958 33.7454Z" fill="#E7E5E3"/>
<path d="M136.343 393.75L194.669 358.519V34.0381L136.343 67.7835V393.75Z" fill="#313238"/>
<path d="M77.9597 34.0383L136.346 67.7837L194.672 34.0383L136.346 0.292969L77.9597 34.0383Z" fill="#515258"/>
<path d="M136.346 393.865L77.9597 360.119V34.0381L136.346 67.7835V393.865Z" fill="#17181A"/>
<path d="M58.3884 435.679L116.774 401.933V212.721L58.3884 246.466V435.679Z" fill="#4F62F6"/>
<path d="M0 212.721L58.3858 246.466L116.772 212.721L58.3858 178.975L0 212.721Z" fill="#598FF8"/>
<path d="M58.3858 434.079L0 400.333V212.721L58.3858 246.466V434.079Z" fill="#342CA3"/>
<path d="M81.0874 389.001L35.7058 411.99L56.5119 422.188L103.254 398.052L190.473 267.461L265.163 262.721L352.383 119.2L412.646 98.0203L363.68 82.7046V92.915L319.134 114.891L247.334 248.067H165.416L81.0874 389.001Z" fill="#84D6D7"/>
<path d="M381.99 135.316L384.882 123.248L387.291 113.335L363.68 129.713L381.99 135.316Z" fill="#35999A"/>
<path fill-rule="evenodd" clip-rule="evenodd" d="M347.854 146.602L396.454 117.891L384.244 94.8882L324.417 123.291L253.367 257.912H175.087L87.0513 399.466L42.9777 421.301L54.5217 446.106L109.476 421.301L192.639 289.541H272.414L347.854 146.602Z" fill="#56ADAE"/>
<path d="M381.913 134.947V88.8306L416.608 97.4504L381.913 134.947Z" fill="#56ADAE"/>
<path d="M54.8682 420.67L36.2136 411.99V436.494L54.8682 445.687V420.67Z" fill="#35999A"/>
</svg>
