<svg aria-hidden="true" style="position: absolute; width: 0; height: 0; overflow: hidden;" version="1.1" xmlns="http://www.w3.org/2000/svg" xmlns:xlink="http://www.w3.org/1999/xlink">
<defs>
<symbol id="chart" viewBox="0 0 30 32">
<path fill="#4f62f6" style="fill: var(--color1, #4f62f6)" d="M20.986 21.508l4.077-2.474v-16.562l-4.152 2.4 0.075 16.636z"></path>
<path fill="#342ca3" style="fill: var(--color2, #342ca3)" d="M20.981 21.499l-4.152-2.4v-16.637l4.152 2.4v16.637z"></path>
<path fill="#598ff8" style="fill: var(--color3, #598ff8)" d="M16.913 2.462l4.086 2.405 4.086-2.405-4.086-2.405-4.086 2.405z"></path>
<path fill="#d6d2cd" style="fill: var(--color4, #d6d2cd)" d="M15.309 24.679l4.152-2.4v-19.88l-4.152 2.4v19.88z"></path>
<path fill="#c1bdb9" style="fill: var(--color5, #c1bdb9)" d="M15.322 24.708l-4.152-2.4v-19.904l4.152 2.4v19.904z"></path>
<path fill="#e7e5e3" style="fill: var(--color6, #e7e5e3)" d="M11.161 2.4l4.148 2.4 4.152-2.4-4.152-2.4-4.148 2.4z"></path>
<path fill="#313238" style="fill: var(--color7, #313238)" d="M9.695 28l4.148-2.505v-23.074l-4.148 2.4v23.18z"></path>
<path fill="#515258" style="fill: var(--color8, #515258)" d="M5.544 2.421l4.152 2.4 4.148-2.4-4.148-2.4-4.152 2.4z"></path>
<path fill="#17181a" style="fill: var(--color9, #17181a)" d="M9.696 28.008l-4.152-2.4v-23.188l4.152 2.4v23.188z"></path>
<path fill="#4f62f6" style="fill: var(--color1, #4f62f6)" d="M4.152 30.982l4.152-2.4v-13.455l-4.152 2.4v13.455z"></path>
<path fill="#598ff8" style="fill: var(--color3, #598ff8)" d="M0 15.127l4.152 2.4 4.152-2.4-4.152-2.4-4.152 2.4z"></path>
<path fill="#342ca3" style="fill: var(--color2, #342ca3)" d="M4.152 30.868l-4.152-2.4v-13.341l4.152 2.4v13.341z"></path>
<path fill="#84d6d7" style="fill: var(--color10, #84d6d7)" d="M5.766 27.662l-3.227 1.635 1.48 0.725 3.324-1.716 6.202-9.286 5.311-0.337 6.202-10.206 4.285-1.506-3.482-1.089v0.726l-3.168 1.563-5.106 9.47h-5.825l-5.997 10.022z"></path>
<path fill="#35999a" style="fill: var(--color11, #35999a)" d="M27.164 9.622l0.206-0.858 0.171-0.705-1.679 1.165 1.302 0.398z"></path>
<path fill="#56adae" style="fill: var(--color12, #56adae)" d="M24.736 10.425l3.456-2.042-0.868-1.636-4.254 2.020-5.052 9.573h-5.567l-6.26 10.066-3.134 1.553 0.821 1.764 3.908-1.764 5.914-9.37h5.673l5.365-10.165z"></path>
<path fill="#56adae" style="fill: var(--color12, #56adae)" d="M27.158 9.596v-3.279l2.467 0.613-2.467 2.666z"></path>
<path fill="#35999a" style="fill: var(--color11, #35999a)" d="M3.902 29.914l-1.327-0.617v1.742l1.327 0.654v-1.779z"></path>
</symbol>
<symbol id="plus" viewBox="0 0 32 32">
<path d="M16 7c0.265 0 0.52 0.105 0.707 0.293s0.293 0.442 0.293 0.707v8c0 0.265-0.105 0.52-0.293 0.707s-0.442 0.293-0.707 0.293h-8c-0.265 0-0.52-0.105-0.707-0.293s-0.293-0.442-0.293-0.707c0-0.265 0.105-0.52 0.293-0.707s0.442-0.293 0.707-0.293h7v-7c0-0.265 0.105-0.52 0.293-0.707s0.442-0.293 0.707-0.293z"></path>
<path d="M15 16c0-0.265 0.105-0.52 0.293-0.707s0.442-0.293 0.707-0.293h8c0.265 0 0.52 0.105 0.707 0.293s0.293 0.442 0.293 0.707c0 0.265-0.105 0.52-0.293 0.707s-0.442 0.293-0.707 0.293h-7v7c0 0.265-0.105 0.52-0.293 0.707s-0.442 0.293-0.707 0.293c-0.265 0-0.52-0.105-0.707-0.293s-0.293-0.442-0.293-0.707v-8z"></path>
</symbol>
<symbol id="chevron" viewBox="0 0 32 32">
<path d="M21.469 12.574c0.208-0.206 0.489-0.322 0.782-0.322s0.574 0.116 0.782 0.322c0.103 0.101 0.184 0.222 0.24 0.355s0.084 0.276 0.084 0.42c0 0.144-0.029 0.287-0.084 0.42s-0.137 0.254-0.24 0.355l-6.253 6.128c-0.209 0.206-0.49 0.321-0.783 0.321s-0.575-0.116-0.783-0.321l-6.253-6.128c-0.103-0.101-0.184-0.222-0.24-0.355s-0.084-0.276-0.084-0.42c0-0.144 0.029-0.287 0.084-0.42s0.137-0.254 0.24-0.355c0.208-0.206 0.489-0.322 0.782-0.322s0.574 0.116 0.782 0.322l5.474 5.026 5.469-5.026z"></path>
</symbol>
<symbol id="burger-menu" viewBox="0 0 32 32">
<path d="M26.733 14.667h-21.467c-0.7 0-1.267 0.567-1.267 1.267v0.133c0 0.7 0.567 1.267 1.267 1.267h21.467c0.7 0 1.267-0.567 1.267-1.267v-0.133c0-0.7-0.567-1.267-1.267-1.267z"></path>
<path d="M26.733 21.333h-21.467c-0.7 0-1.267 0.567-1.267 1.267v0.133c0 0.7 0.567 1.267 1.267 1.267h21.467c0.7 0 1.267-0.567 1.267-1.267v-0.133c0-0.7-0.567-1.267-1.267-1.267z"></path>
<path d="M26.733 8h-21.467c-0.7 0-1.267 0.567-1.267 1.267v0.133c0 0.7 0.567 1.267 1.267 1.267h21.467c0.7 0 1.267-0.567 1.267-1.267v-0.133c0-0.7-0.567-1.267-1.267-1.267z"></path>
</symbol>
</defs>
</svg>
