<svg aria-hidden="true" style="position: absolute; width: 0; height: 0; overflow: hidden;" version="1.1" xmlns="http://www.w3.org/2000/svg" xmlns:xlink="http://www.w3.org/1999/xlink">
<defs>
<symbol id="quotes" viewBox="0 0 37 32">
<path stroke-linejoin="miter" stroke-linecap="butt" stroke-miterlimit="4" stroke-width="1.0667" d="M1.187 29.867v0.651l0.638-0.128c4.068-0.815 7.455-2.591 9.825-5.4 2.371-2.811 3.681-6.607 3.681-11.383v-13.074h-14.798v14.563h7.51c-0.073 1.934-0.55 3.622-1.488 4.967-1.018 1.458-2.614 2.562-4.958 3.121l-0.41 0.098v6.585zM22.656 29.867v0.649l0.637-0.126c4.122-0.815 7.511-2.591 9.868-5.401 2.358-2.812 3.639-6.609 3.639-11.382v-13.074h-14.798v14.563h7.51c-0.073 1.934-0.55 3.622-1.488 4.967-1.018 1.458-2.614 2.562-4.958 3.121l-0.41 0.098v6.585z"></path>
</symbol>
<symbol id="chart" viewBox="0 0 30 32">
<path fill="#4f62f6" style="fill: var(--color1, #4f62f6)" d="M20.158 20.731l3.55-2.142v-14.336l-3.615 2.077 0.065 14.401z"></path>
<path fill="#342ca3" style="fill: var(--color2, #342ca3)" d="M20.199 20.731l-3.615-2.077v-14.401l3.615 2.077v14.401z"></path>
<path fill="#598ff8" style="fill: var(--color3, #598ff8)" d="M16.691 4.306l3.508 2.073 3.508-2.073-3.508-2.073-3.508 2.073z"></path>
<path fill="#d6d2cd" style="fill: var(--color4, #d6d2cd)" d="M15.309 23.495l3.508-2.073v-17.17l-3.508 2.073v17.17z"></path>
<path fill="#c1bdb9" style="fill: var(--color5, #c1bdb9)" d="M15.309 23.495l-3.615-2.070v-17.172l3.615 2.070v17.172z"></path>
<path fill="#e7e5e3" style="fill: var(--color6, #e7e5e3)" d="M11.694 4.199l3.56 2.073 3.563-2.073-3.563-2.073-3.56 2.073z"></path>
<path fill="#313238" style="fill: var(--color7, #313238)" d="M10.419 26.365l3.615-2.166v-19.947l-3.615 2.074v20.038z"></path>
<path fill="#515258" style="fill: var(--color8, #515258)" d="M6.804 4.306l3.616 2.073 3.613-2.073-3.613-2.073-3.616 2.073z"></path>
<path fill="#17181a" style="fill: var(--color9, #17181a)" d="M10.419 26.365l-3.615-2.074v-20.039l3.615 2.074v20.039z"></path>
<path fill="#4f62f6" style="fill: var(--color1, #4f62f6)" d="M5.635 28.917l3.615-2.076v-11.639l-3.615 2.076v11.639z"></path>
<path fill="#598ff8" style="fill: var(--color3, #598ff8)" d="M2.020 15.256l3.615 2.073 3.615-2.073-3.615-2.073-3.615 2.073z"></path>
<path fill="#342ca3" style="fill: var(--color2, #342ca3)" d="M5.635 28.811l-3.615-2.074v-11.534l3.615 2.074v11.534z"></path>
<path fill="#84d6d7" style="fill: var(--color10, #84d6d7)" d="M7.043 26.029l-2.79 1.411 1.279 0.626 2.874-1.481 5.363-8.016 4.592-0.291 5.363-8.809 3.705-1.3-3.011-0.94v0.627l-2.739 1.349-4.415 8.174h-5.037l-5.185 8.651z"></path>
<path fill="#35999a" style="fill: var(--color11, #35999a)" d="M25.5 10.525l0.182-0.759 0.152-0.623-1.488 1.030 1.154 0.352z"></path>
<path fill="#56adae" style="fill: var(--color12, #56adae)" d="M23.384 11.151l2.982-1.764-0.749-1.413-3.671 1.745-4.359 8.272h-4.803l-5.402 8.698-2.704 1.342 0.708 1.524 3.372-1.524 5.102-8.096h4.895l4.629-8.783z"></path>
<path fill="#56adae" style="fill: var(--color12, #56adae)" d="M25.515 10.419v-2.764l2.126 0.517-2.126 2.247z"></path>
<path fill="#35999a" style="fill: var(--color11, #35999a)" d="M5.422 27.976l-1.169-0.548v1.546l1.169 0.58v-1.579z"></path>
</symbol>
<symbol id="plus" viewBox="0 0 32 32">
<path d="M16 7c0.265 0 0.52 0.105 0.707 0.293s0.293 0.442 0.293 0.707v8c0 0.265-0.105 0.52-0.293 0.707s-0.442 0.293-0.707 0.293h-8c-0.265 0-0.52-0.105-0.707-0.293s-0.293-0.442-0.293-0.707c0-0.265 0.105-0.52 0.293-0.707s0.442-0.293 0.707-0.293h7v-7c0-0.265 0.105-0.52 0.293-0.707s0.442-0.293 0.707-0.293z"></path>
<path d="M15 16c0-0.265 0.105-0.52 0.293-0.707s0.442-0.293 0.707-0.293h8c0.265 0 0.52 0.105 0.707 0.293s0.293 0.442 0.293 0.707c0 0.265-0.105 0.52-0.293 0.707s-0.442 0.293-0.707 0.293h-7v7c0 0.265-0.105 0.52-0.293 0.707s-0.442 0.293-0.707 0.293c-0.265 0-0.52-0.105-0.707-0.293s-0.293-0.442-0.293-0.707v-8z"></path>
</symbol>
<symbol id="chevron" viewBox="0 0 32 32">
<path d="M21.469 12.574c0.208-0.206 0.489-0.322 0.782-0.322s0.574 0.116 0.782 0.322c0.103 0.101 0.184 0.222 0.24 0.355s0.084 0.276 0.084 0.42c0 0.144-0.029 0.287-0.084 0.42s-0.137 0.254-0.24 0.355l-6.253 6.128c-0.209 0.206-0.49 0.321-0.783 0.321s-0.575-0.116-0.783-0.321l-6.253-6.128c-0.103-0.101-0.184-0.222-0.24-0.355s-0.084-0.276-0.084-0.42c0-0.144 0.029-0.287 0.084-0.42s0.137-0.254 0.24-0.355c0.208-0.206 0.489-0.322 0.782-0.322s0.574 0.116 0.782 0.322l5.474 5.026 5.469-5.026z"></path>
</symbol>
<symbol id="burger-menu" viewBox="0 0 32 32">
<path d="M26.733 14.667h-21.467c-0.7 0-1.267 0.567-1.267 1.267v0.133c0 0.7 0.567 1.267 1.267 1.267h21.467c0.7 0 1.267-0.567 1.267-1.267v-0.133c0-0.7-0.567-1.267-1.267-1.267z"></path>
<path d="M26.733 21.333h-21.467c-0.7 0-1.267 0.567-1.267 1.267v0.133c0 0.7 0.567 1.267 1.267 1.267h21.467c0.7 0 1.267-0.567 1.267-1.267v-0.133c0-0.7-0.567-1.267-1.267-1.267z"></path>
<path d="M26.733 8h-21.467c-0.7 0-1.267 0.567-1.267 1.267v0.133c0 0.7 0.567 1.267 1.267 1.267h21.467c0.7 0 1.267-0.567 1.267-1.267v-0.133c0-0.7-0.567-1.267-1.267-1.267z"></path>
</symbol>
<symbol id="plus-full" viewBox="0 0 32 32">
<path d="M16 0c0.471 0 0.924 0.187 1.257 0.521s0.521 0.786 0.521 1.257v14.222c0 0.471-0.187 0.924-0.521 1.257s-0.786 0.521-1.257 0.521h-14.222c-0.472 0-0.924-0.187-1.257-0.521s-0.521-0.786-0.521-1.257c0-0.472 0.187-0.924 0.521-1.257s0.786-0.521 1.257-0.521h12.444v-12.444c0-0.472 0.187-0.924 0.521-1.257s0.786-0.521 1.257-0.521z"></path>
<path d="M14.222 16c0-0.472 0.187-0.924 0.521-1.257s0.786-0.521 1.257-0.521h14.222c0.471 0 0.924 0.187 1.257 0.521s0.521 0.786 0.521 1.257c0 0.471-0.187 0.924-0.521 1.257s-0.786 0.521-1.257 0.521h-12.444v12.444c0 0.471-0.187 0.924-0.521 1.257s-0.786 0.521-1.257 0.521c-0.472 0-0.924-0.187-1.257-0.521s-0.521-0.786-0.521-1.257v-14.222z"></path>
</symbol>
<symbol id="chevron-full" viewBox="0 0 53 32">
<path d="M44.896 4.581c0.694-0.687 1.631-1.073 2.608-1.073s1.914 0.385 2.608 1.073c0.343 0.337 0.615 0.74 0.801 1.183s0.281 0.92 0.281 1.401c0 0.481-0.096 0.957-0.281 1.401s-0.458 0.846-0.801 1.183l-20.843 20.427c-0.696 0.686-1.634 1.071-2.611 1.071s-1.915-0.385-2.611-1.071l-20.843-20.427c-0.343-0.337-0.615-0.74-0.801-1.183s-0.281-0.92-0.281-1.401c0-0.481 0.096-0.957 0.281-1.401s0.458-0.846 0.801-1.183c0.694-0.687 1.631-1.073 2.608-1.073s1.914 0.385 2.608 1.073l18.245 16.752 18.229-16.752z"></path>
</symbol>
</defs>
</svg>
